<?xml version="1.0" encoding="UTF-8" standalone="no"?>
<!-- Created with Inkscape (http://www.inkscape.org/) -->

<svg
   xmlns:dc="http://purl.org/dc/elements/1.1/"
   xmlns:cc="http://creativecommons.org/ns#"
   xmlns:rdf="http://www.w3.org/1999/02/22-rdf-syntax-ns#"
   xmlns:svg="http://www.w3.org/2000/svg"
   xmlns="http://www.w3.org/2000/svg"
   xmlns:sodipodi="http://sodipodi.sourceforge.net/DTD/sodipodi-0.dtd"
   xmlns:inkscape="http://www.inkscape.org/namespaces/inkscape"
   width="90"
   height="50"
   id="svg2"
   version="1.1"
   inkscape:version="0.48.4 r9939"
   sodipodi:docname="stop_icon.svg">
  <defs
     id="defs4" />
  <sodipodi:namedview
     id="base"
     pagecolor="#ffffff"
     bordercolor="#666666"
     borderopacity="1.0"
     inkscape:pageopacity="0.0"
     inkscape:pageshadow="2"
     inkscape:zoom="7.9195959"
     inkscape:cx="51.435001"
     inkscape:cy="30.233026"
     inkscape:document-units="px"
     inkscape:current-layer="layer1"
     showgrid="false"
     inkscape:window-width="1366"
     inkscape:window-height="716"
     inkscape:window-x="-8"
     inkscape:window-y="-8"
     inkscape:window-maximized="1" />
  <metadata
     id="metadata7">
    <rdf:RDF>
      <cc:Work
         rdf:about="">
        <dc:format>image/svg+xml</dc:format>
        <dc:type
           rdf:resource="http://purl.org/dc/dcmitype/StillImage" />
        <dc:title></dc:title>
      </cc:Work>
    </rdf:RDF>
  </metadata>
  <g
     inkscape:label="Layer 1"
     inkscape:groupmode="layer"
     id="layer1"
     transform="translate(0,-1002.3622)">
    <path
       style="fill:none"
       d="m 7.5216336,1052.1366 c -0.09829,-0.098 -0.1787025,-8.7884 -0.1787025,-19.3114 0,-17.0568 -0.043061,-19.1759 -0.3968457,-19.5297 -0.3143928,-0.3144 -0.9955031,-0.3968 -3.2781844,-0.3968 l -2.88133874,0 -0.1660903,-0.6618 c -0.2286653,-0.911 0.336569,-3.8837 0.92129554,-4.8452 0.7403204,-1.2174 2.3341421,-2.2201 4.3495792,-2.7366 1.7477799,-0.4478 3.5172759,-0.4666 39.2060363,-0.4165 40.036426,0.056 39.774575,0.048 42.238847,1.3052 2.076399,1.0593 3.474955,3.6668 3.29616,6.1453 l -0.07814,1.0833 -2.77792,0.062 c -1.527856,0.034 -3.033614,0.1216 -3.34613,0.1942 l -0.568211,0.132 0,19.2834 c 0,16.303 -0.05514,19.3292 -0.356758,19.5795 -0.214562,0.1781 -0.994647,0.2659 -1.957171,0.2203 l -1.600412,-0.076 -0.126269,-4.8018 -0.126269,-4.8017 -1.010153,-1.2083 -1.010152,-1.2083 -0.07007,3.5478 -0.07007,3.5478 -0.876952,0 -0.876948,0 0,-4.1669 0,-4.1669 -30.178308,0 -30.178307,0 0,4.1669 0,4.1669 -0.877132,0 -0.877133,0 -0.06988,-3.6592 -0.06989,-3.6592 -1.193716,1.4754 -1.193715,1.4754 -0.06898,4.646 -0.06898,4.6461 -1.6522004,0.073 c -0.90871,0.041 -1.732615,-0.01 -1.830901,-0.1052 l 0,0 z m 5.1877334,-13.2677 0.947018,-1.1472 0,-12.4115 0,-12.4115 -0.959645,0 c -0.527805,0 -1.096015,0.1364 -1.262691,0.303 -0.228429,0.2285 -0.301068,3.6639 -0.295014,13.9528 0.0063,10.7781 0.07275,13.5668 0.315673,13.2556 0.169203,-0.2167 0.733799,-0.9103 1.254659,-1.5412 z m 66.830781,-25.626 c -0.157129,-0.1893 -0.669524,-0.3442 -1.138652,-0.3442 l -0.852962,0 0,12.5185 0,12.5184 1.073287,1.2729 1.073287,1.273 0.06536,-13.4472 c 0.04725,-9.7204 -0.01381,-13.5425 -0.220324,-13.7914 l 0,0 z m -3.759381,12.0302 0,-12.3744 -30.178308,0 -30.178307,0 0,12.3744 0,12.3743 30.178307,0 30.178308,0 0,-12.3743 z"
       id="path3084"
       inkscape:connector-curvature="0" />
    <path
       style="fill:none"
       d="m 7.5216336,1052.1366 c -0.09829,-0.098 -0.1787025,-8.7884 -0.1787025,-19.3114 0,-17.0568 -0.043061,-19.1759 -0.3968457,-19.5297 -0.3143928,-0.3144 -0.9955031,-0.3968 -3.2781844,-0.3968 l -2.88133874,0 -0.1660903,-0.6618 c -0.2286653,-0.911 0.336569,-3.8837 0.92129554,-4.8452 0.7403204,-1.2174 2.3341421,-2.2201 4.3495792,-2.7366 1.7477799,-0.4478 3.5172759,-0.4666 39.2060363,-0.4165 40.036426,0.056 39.774575,0.048 42.238847,1.3052 2.076399,1.0593 3.474955,3.6668 3.29616,6.1453 l -0.07814,1.0833 -2.77792,0.062 c -1.527856,0.034 -3.033614,0.1216 -3.34613,0.1942 l -0.568211,0.132 0,19.2834 c 0,16.303 -0.05514,19.3292 -0.356758,19.5795 -0.214562,0.1781 -0.994647,0.2659 -1.957171,0.2203 l -1.600412,-0.076 -0.126269,-4.8018 -0.126269,-4.8017 -1.010153,-1.2083 -1.010152,-1.2083 -0.07007,3.5478 -0.07007,3.5478 -0.876952,0 -0.876948,0 0,-4.1669 0,-4.1669 -30.178308,0 -30.178307,0 0,4.1669 0,4.1669 -0.877132,0 -0.877133,0 -0.06988,-3.6592 -0.06989,-3.6592 -1.193716,1.4754 -1.193715,1.4754 -0.06898,4.646 -0.06898,4.6461 -1.6522004,0.073 c -0.90871,0.041 -1.732615,-0.01 -1.830901,-0.1052 l 0,0 z m 5.1877334,-13.2677 0.947018,-1.1472 0,-12.4115 0,-12.4115 -0.959645,0 c -0.527805,0 -1.096015,0.1364 -1.262691,0.303 -0.228429,0.2285 -0.301068,3.6639 -0.295014,13.9528 0.0063,10.7781 0.07275,13.5668 0.315673,13.2556 0.169203,-0.2167 0.733799,-0.9103 1.254659,-1.5412 z m 66.830781,-25.626 c -0.157129,-0.1893 -0.669524,-0.3442 -1.138652,-0.3442 l -0.852962,0 0,12.5185 0,12.5184 1.073287,1.2729 1.073287,1.273 0.06536,-13.4472 c 0.04725,-9.7204 -0.01381,-13.5425 -0.220324,-13.7914 l 0,0 z m -3.759381,12.0302 0,-12.3744 -30.178308,0 -30.178307,0 0,12.3744 0,12.3743 30.178307,0 30.178308,0 0,-12.3743 z"
       id="path3086"
       inkscape:connector-curvature="0" />
    <path
       style="fill:#1a9ae0;fill-opacity:1;stroke:none"
       d="M 36.65625 1.34375 C 24.900091 1.3932189 0.1027975 2.0279125 0.09375 9 C 0.14475 9.813 0.5225 9.96875 0.9375 9.96875 L 6.125 9.96875 C 6.477 9.96875 6.78125 10.24175 6.78125 10.59375 L 6.78125 48.65625 C 6.78125 49.00825 7.05425 49.3125 7.40625 49.3125 L 9.8125 49.3125 C 10.1645 49.3125 10.46875 49.00825 10.46875 48.65625 L 10.46875 36.6875 L 79.375 36.6875 L 79.375 48.65625 C 79.375 49.00825 79.648 49.3125 80 49.3125 L 82.40625 49.3125 C 82.75825 49.3125 83.03125 49.00825 83.03125 48.65625 L 83.03125 10.59375 C 83.03125 10.24175 83.3355 9.96875 83.6875 9.96875 L 89.125 9.96875 C 89.54 9.96875 89.91775 9.813 89.96875 9 C 89.96875 2.0658 65.981007 1.4775723 55 1.4375 L 75.34375 1.4375 L 40.78125 1.34375 C 39.743985 1.34375 38.335701 1.336683 36.65625 1.34375 z M 11.09375 9.96875 L 78.71875 9.96875 C 79.07075 9.96875 79.375 10.24175 79.375 10.59375 L 79.375 35.90625 L 10.46875 35.90625 L 10.46875 10.59375 C 10.46875 10.24175 10.74175 9.96875 11.09375 9.96875 z "
       transform="translate(0,1002.3622)"
       id="path3009" />
    <path
       style="fill:none"
       d="m 7.5216336,1052.1366 c -0.09829,-0.098 -0.1787025,-8.7884 -0.1787025,-19.3114 0,-17.0568 -0.043061,-19.1759 -0.3968457,-19.5297 -0.3143928,-0.3144 -0.9955031,-0.3968 -3.2781844,-0.3968 l -2.88133874,0 -0.1660903,-0.6618 c -0.2286653,-0.911 0.336569,-3.8837 0.92129554,-4.8452 0.7403204,-1.2174 2.3341421,-2.2201 4.3495792,-2.7366 1.7477799,-0.4478 3.5172759,-0.4666 39.2060363,-0.4165 40.036426,0.056 39.774575,0.048 42.238847,1.3052 2.076399,1.0593 3.474955,3.6668 3.29616,6.1453 l -0.07814,1.0833 -2.77792,0.062 c -1.527856,0.034 -3.033614,0.1216 -3.34613,0.1942 l -0.568211,0.132 0,19.2834 c 0,16.303 -0.05514,19.3292 -0.356758,19.5795 -0.214562,0.1781 -0.994647,0.2659 -1.957171,0.2203 l -1.600412,-0.076 -0.126269,-4.8018 -0.126269,-4.8017 -1.010153,-1.2083 -1.010152,-1.2083 -0.07007,3.5478 -0.07007,3.5478 -0.876952,0 -0.876948,0 0,-4.1669 0,-4.1669 -30.178308,0 -30.178307,0 0,4.1669 0,4.1669 -0.877132,0 -0.877133,0 -0.06988,-3.6592 -0.06989,-3.6592 -1.193716,1.4754 -1.193715,1.4754 -0.06898,4.646 -0.06898,4.6461 -1.6522004,0.073 c -0.90871,0.041 -1.732615,-0.01 -1.830901,-0.1052 l 0,0 z m 5.1877334,-13.2677 0.947018,-1.1472 0,-12.4115 0,-12.4115 -0.959645,0 c -0.527805,0 -1.096015,0.1364 -1.262691,0.303 -0.228429,0.2285 -0.301068,3.6639 -0.295014,13.9528 0.0063,10.7781 0.07275,13.5668 0.315673,13.2556 0.169203,-0.2167 0.733799,-0.9103 1.254659,-1.5412 z m 66.830781,-25.626 c -0.157129,-0.1893 -0.669524,-0.3442 -1.138652,-0.3442 l -0.852962,0 0,12.5185 0,12.5184 1.073287,1.2729 1.073287,1.273 0.06536,-13.4472 c 0.04725,-9.7204 -0.01381,-13.5425 -0.220324,-13.7914 l 0,0 z m -3.759381,12.0302 0,-12.3744 -30.178308,0 -30.178307,0 0,12.3744 0,12.3743 30.178307,0 30.178308,0 0,-12.3743 z"
       id="path3090"
       inkscape:connector-curvature="0" />
    <path
       style="fill:none"
       d="m 7.5916026,1032.7981 c -0.00234,-11.6586 -0.098141,-19.4177 -0.242579,-19.6469 -0.1833015,-0.2909 -0.9591171,-0.4081 -3.3422634,-0.505 l -3.10355154,-0.1263 0.0257554,-1.3982 c 0.0639108,-3.4695 1.71406124,-5.4034 5.40381454,-6.3331 1.15611,-0.2913 7.5982464,-0.3432 38.4277384,-0.3095 26.078321,0.028 37.582703,0.1247 38.876863,0.3255 4.349471,0.6749 6.5296,2.7057 6.622746,6.1691 l 0.04158,1.5462 -2.777919,0.062 c -1.527856,0.034 -3.033614,0.1216 -3.34613,0.1942 l -0.568211,0.1319 -0.0039,19.2512 c -0.002,10.5882 -0.0979,19.3995 -0.212829,19.5807 -0.143227,0.2258 -0.678249,0.3053 -1.700766,0.2526 l -1.491806,-0.077 -0.126269,-4.7392 -0.126269,-4.7393 -1.262691,-1.5597 -1.262691,-1.5597 -0.06971,3.8367 -0.06971,3.8367 -0.62477,0 -0.624766,0 0,-4.1668 0,-4.1669 -30.430846,0 -30.430845,0 0,4.1669 0,4.1668 -0.631346,0 -0.631345,0 0,-3.788 c 0,-2.0835 -0.08523,-3.7877 -0.189404,-3.7872 -0.104171,5e-4 -0.757614,0.7036 -1.452094,1.5624 l -1.26269,1.5615 -0.12627,4.6879 -0.126269,4.6879 -1.5783634,0.075 -1.578363,0.075 -0.0039,-19.2681 z m 5.1471424,6.5441 1.170178,-1.4619 0,-12.3645 0,-12.3646 0.631345,0 0.631346,0 0,12.3744 0,12.3744 30.430845,0 30.430846,0 0,-12.3744 0,-12.3744 0.631345,0 0.631345,0 0,12.4686 0,12.4685 1.38896,1.6945 1.38896,1.6945 0,-14.1542 c 0,-13.7353 -0.01445,-14.1618 -0.488475,-14.4155 -0.680597,-0.3643 -67.537902,-0.3643 -68.2185,0 -0.474041,0.2537 -0.488475,0.6806 -0.488475,14.4488 0,12.0062 0.05305,14.1305 0.345052,13.8175 0.189778,-0.2033 0.871631,-1.0276 1.515228,-1.8317 z"
       id="path3092"
       inkscape:connector-curvature="0" />
  </g>
</svg>
