<?xml version="1.0" encoding="UTF-8" standalone="no"?>
<!-- Created with Inkscape (http://www.inkscape.org/) -->

<svg
   xmlns:dc="http://purl.org/dc/elements/1.1/"
   xmlns:cc="http://creativecommons.org/ns#"
   xmlns:rdf="http://www.w3.org/1999/02/22-rdf-syntax-ns#"
   xmlns:svg="http://www.w3.org/2000/svg"
   xmlns="http://www.w3.org/2000/svg"
   xmlns:sodipodi="http://sodipodi.sourceforge.net/DTD/sodipodi-0.dtd"
   xmlns:inkscape="http://www.inkscape.org/namespaces/inkscape"
   width="200"
   height="400"
   id="svg2"
   version="1.1"
   inkscape:version="0.48.4 r9939"
   sodipodi:docname="New document 1">
  <defs
     id="defs4" />
  <sodipodi:namedview
     id="base"
     pagecolor="#ffffff"
     bordercolor="#666666"
     borderopacity="1.0"
     inkscape:pageopacity="0.0"
     inkscape:pageshadow="2"
     inkscape:zoom="1"
     inkscape:cx="60.208076"
     inkscape:cy="291.87862"
     inkscape:document-units="px"
     inkscape:current-layer="layer1"
     showgrid="false"
     inkscape:window-width="1366"
     inkscape:window-height="716"
     inkscape:window-x="-8"
     inkscape:window-y="-8"
     inkscape:window-maximized="1" />
  <metadata
     id="metadata7">
    <rdf:RDF>
      <cc:Work
         rdf:about="">
        <dc:format>image/svg+xml</dc:format>
        <dc:type
           rdf:resource="http://purl.org/dc/dcmitype/StillImage" />
        <dc:title></dc:title>
      </cc:Work>
    </rdf:RDF>
  </metadata>
  <g
     inkscape:label="Layer 1"
     inkscape:groupmode="layer"
     id="layer1"
     transform="translate(0,-652.36218)">
    <path
       style="fill:#1a9ae0;fill-opacity:1;stroke:none"
       d="M 101.03449,653.48012 C 98.944808,653.23683 75.905038,725.03353 48.440738,845.82387 23.175928,956.94065 2.5042384,1048.5055 2.5032384,1049.2926 c -0.00135,0.7871 0.15769,1.2315 0.34375,1 3.05674,-3.803 83.5151596,-100.3824 84.7499996,-103.18748 4.53175,-4.56026 10.45499,-87.33965 13.437502,-164.75 2.9825,77.41068 8.93698,160.18971 13.46875,164.75 1.23484,2.80508 81.69326,99.38448 84.75,103.18748 0.18606,0.2315 0.3451,-0.2129 0.34375,-1 -0.001,-0.7871 -20.67269,-92.35195 -45.9375,-203.46873 -27.4643,-120.79034 -50.50407,-192.58704 -52.59375,-192.34375 -0.005,0.0298 -0.0266,0.0638 -0.0312,0.0937 -0.004,-0.0286 0.004,-0.0654 0,-0.0937 z"
       id="path2989"
       inkscape:connector-curvature="0" />
  </g>
</svg>
